<svg xmlns="http://www.w3.org/2000/svg" viewBox="0 0 396.71 540.18"><defs><style>.b7870ea5-c353-4135-babc-8578a5ed932e{fill:#a5a5a5;}</style></defs><title>Risorsa 1</title><g id="fa01fca4-38cf-495c-8136-c1c118c52be7" data-name="Livello 2"><g id="b012f702-28f8-495a-ab20-6dc1412152b8" data-name="Livello 2"><path class="b7870ea5-c353-4135-babc-8578a5ed932e" d="M308,14.18c-1.42,3.57-4.8,4.9-8.06,2C283.64,1.91,256.49-2.27,234,1.1c-5.18.78-8.6,6.51-13.8,6.36C202.65,6.94,179.78,4,163,7.19c-6.89,1.3-13.37,11.13-20.36,14.07-5.08,2.14-11,0-16.18,1.69C113.73,27.11,104.24,34,92.63,39.25,82.17,44,68.94,42,58.56,47.1c-10.64,5.21-8.45,14.83-14,22.43-2.89,4-8.73,1.43-11.81,5.23C15.31,96.28,0,129.78,0,158.18c0,7.91,2.28,31.06,15,30.8,3-.06,7.26-5.87,11-6.8-5.69,23.32,25.69-10.5,27.12-7.5,2.38,5-4.46,24.93-5,31.57-1.1,13.61,11,23.6,7.11,38.6-3.36,12.85-11.7,29.22-18.26,40.9-3.22,5.75-9.83,9.23-10.48,16.56-1.19,13.59,20.77,13.06,25,22.05,2.85,6.12,1.21,13.08,4,19,2.18,4.53,8.18,4.56,9.82,9.13S63.14,361.3,65,365.6c2.87,6.53,9.86,10.74,12.15,17.92,3.51,11-.14,24.2,6.23,34.83,18.18,30.32,51.4.13,74.31,8.51,7.83,2.87,6.93,18.23,11,24.82C188.43,483.2,200.48,502,194,540.18c12.46-6.93,20.66-21.31,31.78-30.16a456.18,456.18,0,0,1,80.62-50.84c12.51-6.26,47.07-12.41,54.29-24,.95-1.52-16.3-21.16-18.54-25-12.86-22.14-20.77-48.63-15.79-74.9s31.44-46.63,40.52-70.78c10.38-27.57,25.18-60,28.91-89.49C400.91,134.5,383.93,98,364.31,64.13,357.84,53,353.61,37.27,342.9,28.74,336.07,23.3,317,18,308,14.18"/></g></g></svg>
